<?xml version="1.0" encoding="UTF-8"?>
<svg width="21px" height="21px" viewBox="0 0 21 21" version="1.1" xmlns="http://www.w3.org/2000/svg" xmlns:xlink="http://www.w3.org/1999/xlink">
    <!-- Generator: Sketch 47.1 (45422) - http://www.bohemiancoding.com/sketch -->
    <title>导入</title>
    <desc>Created with Sketch.</desc>
    <defs></defs>
    <g id="切图" stroke="none" stroke-width="1" fill="none" fill-rule="evenodd">
        <g id="导入" fill-rule="nonzero" fill="#B7926E">
            <path d="M19.6875,3.25000001 L11.025,3.25000001 C10.675,3.25000001 10.325,3.11500001 10.10625,2.84500001 L8.70624999,1.405 C8.44374999,1.135 8.1375,1 7.78749999,1 L1.3125,1 C0.568749993,1 0,1.58500001 0,2.35 L0,17.65 C0,18.415 0.568749993,19 1.3125,19 L19.6875,19 C20.43125,19 21,18.415 21,17.65 L21,4.6 C21,3.835 20.43125,3.25000001 19.6875,3.25000001 Z M14.74375,11.485 L11.06875,15.535 C10.89375,15.715 10.675,15.805 10.4125,15.805 C10.19375,15.805 9.93124999,15.715 9.75624999,15.535 L6.08124999,11.485 C5.55624999,10.9 5.94999999,10 6.73749999,10 L8.75000001,10 L8.75000001,7.3 C8.75000001,6.805 9.14375001,6.4 9.62499999,6.4 L11.375,6.4 C11.85625,6.4 12.25,6.805 12.25,7.3 L12.25,10 L14.0875,10 C14.875,10 15.26875,10.945 14.74375,11.485 L14.74375,11.485 Z" id="Shape"></path>
        </g>
    </g>
</svg>