<?xml version="1.0" encoding="UTF-8"?>
<svg width="32px" height="32px" viewBox="0 0 32 32" version="1.1" xmlns="http://www.w3.org/2000/svg" xmlns:xlink="http://www.w3.org/1999/xlink">
    <!-- Generator: Sketch 47.1 (45422) - http://www.bohemiancoding.com/sketch -->
    <title>已报价</title>
    <desc>Created with Sketch.</desc>
    <defs></defs>
    <g id="切图" stroke="none" stroke-width="1" fill="none" fill-rule="evenodd">
        <g id="已报价" fill-rule="nonzero" fill="#1368C3">
            <g id="报价" transform="translate(2.000000, 0.000000)">
                <path d="M23.1813528,32 L3.81872892,32 C1.71337929,32 0,30.3017748 0,28.2163189 L0,3.78364093 C0,1.69818504 1.71342014,0 3.81872892,0 L23.1813119,0 C25.2866616,0 27,1.69818504 27,3.78364093 L27,28.2163591 C27.0000408,30.3017748 25.2867024,32 23.1813528,32 Z M3.81872892,2.55641321 C3.14666891,2.55641321 2.60103117,3.10724213 2.60103117,3.78364093 L2.60103117,28.2163591 C2.60103117,28.892798 3.14666891,29.4435868 3.81872892,29.4435868 L23.1813119,29.4435868 C23.8526775,29.4435868 24.3990097,28.892798 24.3990097,28.2163591 L24.3990097,3.78364093 C24.3990097,3.10724213 23.8526775,2.55641321 23.1813119,2.55641321 L3.81872892,2.55641321 Z" id="Shape"></path>
                <path d="M20,9.06534355 C20,9.65455659 19.4395094,10.1293807 18.7497427,10.1293807 L6.25085877,10.1293807 C5.56045049,10.1293807 5,9.65455659 5,9.06534355 C5,8.47878407 5.56045049,8 6.25085877,8 L18.7497427,8 C19.4395495,8 20,8.47878407 20,9.06534355 L20,9.06534355 Z M15.044843,14.4999592 C15.044843,15.0878658 14.561461,15.5653435 13.9638396,15.5653435 L6.08104351,15.5653435 C5.48470527,15.5653435 5,15.0878658 5,14.4999592 C5,13.9107461 5.48470527,13.4345748 6.08104351,13.4345748 L13.9638396,13.4345748 C14.561461,13.4345748 15.044843,13.9107461 15.044843,14.4999592 L15.044843,14.4999592 Z M10.6305285,19.9345748 C10.6305285,20.5224815 10.1465851,21 9.55020677,21 L6.08104351,21 C5.48470527,21 5,20.5225223 5,19.9345748 C5,19.3453209 5.48470527,18.8691496 6.08104351,18.8691496 L9.55020677,18.8691496 C10.146545,18.8691496 10.6305285,19.3453209 10.6305285,19.9345748 Z" id="Shape"></path>
            </g>
        </g>
    </g>
</svg>