<?xml version="1.0" encoding="UTF-8"?>
<svg width="32px" height="32px" viewBox="0 0 32 32" version="1.1" xmlns="http://www.w3.org/2000/svg" xmlns:xlink="http://www.w3.org/1999/xlink">
    <!-- Generator: Sketch 47.1 (45422) - http://www.bohemiancoding.com/sketch -->
    <title>待付款</title>
    <desc>Created with Sketch.</desc>
    <defs></defs>
    <g id="切图" stroke="none" stroke-width="1" fill="none" fill-rule="evenodd">
        <g id="待付款" fill-rule="nonzero" fill="#1368C3">
            <g id="待付款订单">
                <path d="M28.8710672,8.10768333 L28.8710672,1.1390803 C28.8710672,0.589267559 28.6274837,0.28323307 28.0977339,0.0815561494 C27.6894139,-0.0740524388 27.2921509,0.0191719497 26.8088011,0.143684414 L0,8.10768333 L0,30.0089523 C0,31.1085138 0.923195461,32 2.06220028,32 L28.8710672,32 C30.0100062,32 30.9333333,31.1085778 30.9333333,30.0089523 L30.9333333,10.098923 C30.9332675,8.99929751 30.0100062,8.10768333 28.8710672,8.10768333 Z M26.8088011,2.13479611 L26.8088011,8.10774731 L6.70233191,8.10774731 L26.8088011,2.13479611 Z M28.8710672,21.0493655 C28.8710672,21.5989863 28.8710672,21.3605187 28.8710672,22.0450173 L24.7466667,22.0450173 C24.7466667,21.4012124 24.7466667,21.5992423 24.7466667,21.0493655 L24.7466667,20.0539056 L28.8710672,20.0539056 C28.8710672,20.8004046 28.8710672,20.4996168 28.8710672,21.0493655 Z M28.8710672,18.0628579 L23.7155336,18.0628579 C23.146097,18.0628579 22.6844664,18.508633 22.6844664,19.0583818 L22.6844664,23.0404772 C22.6844664,23.59029 23.146097,24.0360651 23.7155336,24.0360651 L28.8710672,24.0360651 L28.8710672,29.0132365 C28.8710672,29.5633052 28.4094366,30.0089523 27.84,30.0089523 L3.09333333,30.0089523 C2.52383092,30.0089523 2.06220028,29.5633052 2.06220028,29.0132365 C2.06220028,29.0132365 2.06220028,10.7831017 2.06220028,10.0986671 L27.8399342,10.098923 C28.4093708,10.098923 28.8710014,10.5443782 28.8710014,11.0942549 L28.8710014,18.0628579 L28.8710672,18.0628579 Z" id="Shape"></path>
            </g>
        </g>
    </g>
</svg>