<?xml version="1.0" encoding="UTF-8"?>
<svg width="32px" height="32px" viewBox="0 0 32 32" version="1.1" xmlns="http://www.w3.org/2000/svg" xmlns:xlink="http://www.w3.org/1999/xlink">
    <!-- Generator: Sketch 47.1 (45422) - http://www.bohemiancoding.com/sketch -->
    <title>待收货</title>
    <desc>Created with Sketch.</desc>
    <defs></defs>
    <g id="切图" stroke="none" stroke-width="1" fill="none" fill-rule="evenodd">
        <g id="待收货" fill-rule="nonzero" fill="#1368C3">
            <g transform="translate(0.000000, 1.000000)" id="Shape">
                <path d="M10.156496,15.0204082 L7.47618752,15.0204082 C6.95396322,15.0204082 6.53061224,14.596999 6.53061224,14.0748697 C6.53061224,13.5526488 6.95396322,13.1293312 7.47618752,13.1293312 L9.21095121,13.1293312 L9.21095121,11.3945486 C9.21095121,10.8723277 9.63430218,10.4489796 10.156496,10.4489796 C10.6786898,10.4489796 11.1020408,10.8723277 11.1020408,11.3945486 L11.1020408,14.0748697 C11.1020408,14.596999 10.6786898,15.0204082 10.156496,15.0204082 Z"></path>
                <path d="M27.698405,0 L13.6811685,0 C11.3093013,0 9.3795735,1.91826348 9.3795735,4.27625223 L9.3795735,7.63812775 C7.25981344,8.06649731 5.13365392,8.55126391 3.45667311,9.44032077 C1.16297547,10.6564679 0,12.5179844 0,14.9732764 L0,23.3651462 C0,24.8161379 1.18748545,25.9966591 2.64710827,25.9966591 L5.4987436,25.9966591 C6.35192077,27.2535215 7.79762479,28.0816327 9.43428894,28.0816327 C11.0709531,28.0816327 12.5166571,27.2535215 13.3698023,25.9966591 L19.5681678,25.9966591 C20.421345,27.2535215 21.867017,28.0816327 23.5036492,28.0816327 C25.1402814,28.0816327 26.5859853,27.2535215 27.4391625,25.9966591 L29.3528597,25.9966591 C30.8125146,25.9966591 32,24.8161379 32,23.3651462 L32,4.2762204 C32,1.91826344 30.0702722,0 27.698405,0 Z M9.43428894,26.1080219 C7.91287922,26.1080219 6.67512595,24.8774972 6.67512595,23.365178 C6.67512595,21.8527317 7.91287922,20.6223024 9.43428894,20.6223024 C10.9556667,20.6223024 12.1934519,21.8527635 12.1934519,23.365178 C12.1934519,24.8774972 10.9556667,26.1080219 9.43428894,26.1080219 Z M23.5036172,26.1080219 C21.9822395,26.1080219 20.7444862,24.8774972 20.7444862,23.365178 C20.7444862,21.8527317 21.9822715,20.6223024 23.5036172,20.6223024 C25.0250269,20.6223024 26.2627802,21.8527635 26.2627802,23.365178 C26.2628122,24.8774972 25.0250269,26.1080219 23.5036172,26.1080219 Z M30.0146288,23.3651462 C30.0146288,23.7278623 29.7177574,24.0230165 29.3528277,24.0230165 L28.2009873,24.0230165 C28.2313208,23.8078616 28.2481514,23.588476 28.2481514,23.3651462 C28.2481514,20.7643606 26.119752,18.6485961 23.5036492,18.6485961 C20.8875463,18.6485961 18.759179,20.7643924 18.759179,23.3651462 C18.759179,23.588476 18.7759456,23.8078616 18.8063111,24.0230165 L14.1316271,24.0230165 C14.1619606,23.8078616 14.1787912,23.588476 14.1787912,23.3651462 C14.1787912,20.7643606 12.0503918,18.6485961 9.43428897,18.6485961 C6.81815411,18.6485961 4.68978678,20.7643924 4.68978678,23.3651462 C4.68978678,23.588476 4.7065854,23.8078616 4.73691887,24.0230165 L2.64710827,24.0230165 C2.28224255,24.0230165 1.98533919,23.7278941 1.98533919,23.3651462 L1.98533923,14.9732764 C1.98537121,11.3793872 5.22740614,10.4754438 10.5668989,9.41391945 L11.3649127,9.25522517 L11.3649127,4.2762204 C11.3649127,3.00653904 12.4039944,1.97364262 13.6811684,1.97364262 L27.698405,1.97364262 C28.975515,1.97364262 30.0146288,3.00657084 30.0146288,4.2762204 L30.0146288,23.3651462 Z"></path>
            </g>
        </g>
    </g>
</svg>