<?xml version="1.0" encoding="UTF-8"?>
<svg width="32px" height="32px" viewBox="0 0 32 32" version="1.1" xmlns="http://www.w3.org/2000/svg" xmlns:xlink="http://www.w3.org/1999/xlink">
    <!-- Generator: Sketch 47.1 (45422) - http://www.bohemiancoding.com/sketch -->
    <title>待审核（总部）</title>
    <desc>Created with Sketch.</desc>
    <defs></defs>
    <g id="切图" stroke="none" stroke-width="1" fill="none" fill-rule="evenodd">
        <g id="待审核（总部）" fill-rule="nonzero" fill="#1368C3">
            <g id="审核" transform="translate(2.000000, 0.000000)">
                <path d="M21.9300699,32 L5.22144522,32 C2.2974359,32 0,29.6533333 0,26.6666667 L0,9.6 L9.18974359,0 L21.9300699,0 C24.8540793,0 27.1515152,2.34666667 27.1515152,5.33333333 L27.1515152,26.6666667 C27.1515152,29.6533333 24.8540793,32 21.9300699,32 Z M2.08857809,10.4533333 L2.08857809,26.6666667 C2.08857809,28.3733333 3.55058275,29.8666667 5.22144522,29.8666667 L21.9300699,29.8666667 C23.6009324,29.8666667 25.0629371,28.3733333 25.0629371,26.6666667 L25.0629371,5.33333333 C25.0629371,3.62666667 23.6009324,2.13333333 21.9300699,2.13333333 L10.0251748,2.13333333 L2.08857809,10.4533333 Z" id="Shape"></path>
                <path d="M7.00870087,11.4746475 L1.93939394,11.4746475 L1.93939394,9.36243624 L7.00870087,9.36243624 C8.06480648,9.36243624 8.69846985,8.51755176 8.69846985,7.67266727 L8.69846985,1.96969697 L10.8106811,1.96969697 L10.8106811,7.67266727 C10.8106811,9.78487849 9.12091209,11.4746475 7.00870087,11.4746475 L7.00870087,11.4746475 Z M11.4443444,23.3030303 C11.2331233,23.3030303 10.8106811,23.3030303 10.5994599,23.0918092 L6.3750375,18.4449445 C5.95259526,18.0225023 5.95259526,17.3888389 6.3750375,16.9663966 C6.79747975,16.5439544 7.43114311,16.5439544 7.85358536,16.9663966 L12.2892289,21.4020402 C12.7116712,21.8244824 12.7116712,22.4581458 12.2892289,22.8805881 C12.0780078,23.0918092 11.8667867,23.3030303 11.4443444,23.3030303 L11.4443444,23.3030303 Z" id="Shape"></path>
                <path d="M11.8038879,23.2727273 C11.6026301,23.2727273 11.2001144,23.2727273 10.9988565,23.0510823 C10.5963408,22.6077922 10.5963408,21.9428571 10.9988565,21.4995671 L19.6529445,11.9688312 C20.0554603,11.5255411 20.6592338,11.5255411 21.0617496,11.9688312 C21.4642653,12.4121212 21.4642653,13.0770563 21.0617496,13.5203463 L12.6089194,22.8294372 C12.4076615,23.0510823 12.2064037,23.2727273 11.8038879,23.2727273 L11.8038879,23.2727273 Z" id="Shape"></path>
            </g>
        </g>
    </g>
</svg>